Coordinates
version=1
nRows=54
nColumns=12
inDegrees=yes

Units are S.I. units (second, meters, Newtons, ...)
Angles are in degrees

endheader
time	SC_y	SC_z	SC_x	AC_y	AC_z	AC_x	GH_y	GH_z	GH_yy	EL_x	PS_y
       0.0               -31.7          19.55           26.1          40.26         -2.977          19.77         -103.1          6.109         -121.8          9.342          128.3
   0.03721               -31.7          19.55           26.1          40.27         -2.977          19.77         -103.1           6.12         -121.8          9.345          128.3
   0.07442               -31.7          19.55           26.1          40.27         -2.978          19.76         -103.0          6.133         -121.8          9.348          128.3
    0.1116               -31.7          19.55          26.09          40.27         -2.978          19.75         -103.0          6.146         -121.8          9.351          128.3
    0.1488               -31.7          19.55          26.09          40.28         -2.978          19.75         -103.0           6.16         -121.7          9.354          128.3
    0.1861               -31.7          19.54          26.09          40.28         -2.978          19.74         -102.9          6.175         -121.7          9.358          128.3
    0.2233               -31.7          19.54          26.09          40.29         -2.978          19.73         -102.9          6.192         -121.7          9.362          128.3
    0.2605               -31.7          19.54          26.09          40.29         -2.979          19.73         -102.9          6.209         -121.6          9.366          128.3
    0.2977               -31.7          19.54          26.09           40.3         -2.979          19.72         -102.8          6.227         -121.6          9.371          128.3
    0.3349              -31.69          19.53          26.09           40.3         -2.979          19.71         -102.8          6.247         -121.5          9.376          128.3
    0.3721              -31.69          19.53          26.09          40.31          -2.98           19.7         -102.8          6.268         -121.5          9.381          128.3
    0.4093              -31.69          19.53          26.09          40.31          -2.98          19.69         -102.7          6.291         -121.4          9.386          128.2
    0.4465              -31.69          19.52          26.09          40.32          -2.98          19.67         -102.7          6.316         -121.4          9.393          128.2
    0.4838              -31.69          19.52          26.09          40.33         -2.981          19.66         -102.6          6.343         -121.3          9.399          128.2
     0.521              -31.68          19.51          26.08          40.34         -2.981          19.65         -102.5          6.371         -121.3          9.406          128.2
    0.5582              -31.68          19.51          26.08          40.35         -2.982          19.63         -102.5          6.403         -121.2          9.414          128.2
    0.5954              -31.68           19.5          26.08          40.36         -2.982          19.62         -102.4          6.437         -121.1          9.422          128.2
    0.6326              -31.68           19.5          26.08          40.37         -2.983           19.6         -102.3          6.474         -121.0          9.431          128.2
    0.6698              -31.67          19.49          26.08          40.38         -2.983          19.58         -102.3          6.514         -121.0          9.441          128.1
     0.707              -31.67          19.49          26.08          40.39         -2.984          19.56         -102.2          6.559         -120.9          9.452          128.1
    0.7442              -31.66          19.48          26.07           40.4         -2.985          19.54         -102.1          6.607         -120.8          9.464          128.1
    0.7815              -31.66          19.47          26.07          40.42         -2.985          19.51         -102.0          6.661         -120.6          9.477          128.1
    0.8187              -31.66          19.46          26.07          40.43         -2.986          19.48         -101.8           6.72         -120.5          9.492          128.0
    0.8559              -31.65          19.45          26.07          40.45         -2.987          19.45         -101.7          6.785         -120.4          9.508          128.0
    0.8931              -31.64          19.44          26.06          40.47         -2.988          19.42         -101.6          6.858         -120.2          9.526          128.0
    0.9303              -31.64          19.43          26.06           40.5          -2.99          19.38         -101.4          6.939         -120.0          9.545          127.9
    0.9675              -31.63          19.41          26.06          40.52         -2.991          19.33         -101.2           7.03         -119.8          9.568          127.9
     1.005              -31.62           19.4          26.05          40.55         -2.992          19.28         -101.0          7.133         -119.6          9.593          127.8
     1.042              -31.61          19.38          26.05          40.58         -2.994          19.23         -100.8          7.248         -119.3          9.621          127.8
     1.079               -31.6          19.36          26.04          40.62         -2.996          19.17         -100.5           7.38         -119.1          9.653          127.7
     1.116              -31.59          19.34          26.03          40.66         -2.998           19.1         -100.2           7.53         -118.7           9.69          127.6
     1.154              -31.58          19.31          26.03          40.71         -3.001          19.01         -99.83          7.702         -118.4          9.732          127.5
     1.191              -31.56          19.28          26.02          40.77         -3.004          18.92         -99.42            7.9         -117.9          9.781          127.4
     1.228              -31.54          19.25          26.01          40.83         -3.007          18.81         -98.95          8.131         -117.4          9.838          127.3
     1.265              -31.52          19.21          25.99          40.91         -3.011          18.68          -98.4          8.401         -116.8          9.904          127.2
     1.302              -31.49          19.16          25.98          40.99         -3.016          18.53         -97.75           8.72         -116.1          9.982          127.0
      1.34              -31.46           19.1          25.96           41.1         -3.022          18.35         -96.98          9.098         -115.3          10.07          126.8
     1.377              -31.43          19.04          25.94          41.23         -3.028          18.13         -96.05          9.552         -114.3          10.19          126.6
     1.414              -31.38          18.95          25.92          41.38         -3.036          17.87         -94.93           10.1         -113.1          10.32          126.3
     1.451              -31.33          18.85          25.89          41.57         -3.046          17.55         -93.56          10.77         -111.6          10.49          126.0
     1.488              -31.26          18.73          25.85           41.8         -3.059          17.16         -91.87           11.6         -109.8          10.69          125.5
     1.526              -31.18          18.57          25.81          42.09         -3.074          16.67         -89.77          12.63         -107.5          10.94          125.0
     1.563              -31.07          18.38          25.75          42.45         -3.093          16.05         -87.11          13.93         -104.7          11.26          124.3
       1.6              -30.94          18.13          25.67          42.92         -3.118          15.26         -83.74          15.58         -101.1          11.66          123.5
     1.637              -30.77          17.81          25.58          43.51         -3.149          14.25         -79.42           17.7         -96.42          12.18          122.4
     1.675              -30.55          17.41          25.46          44.27         -3.189          12.96         -73.88          20.41         -90.46          12.85          121.0
     1.712              -30.27          16.88           25.3          45.24         -3.241          11.31         -66.81          23.87         -82.86           13.7          119.3
     1.749              -29.92          16.23          25.11          46.46         -3.305          9.236         -57.91          28.23         -73.29          14.77          117.0
     1.786              -29.49          15.43          24.87          47.94         -3.384          6.707         -47.07          33.54         -61.63          16.07          114.3
     1.823              -28.99          14.51           24.6          49.67         -3.475          3.775          -34.5           39.7         -48.12          17.58          111.2
     1.861              -28.46          13.51           24.3          51.53         -3.574         0.6009         -20.89          46.36         -33.49          19.22          107.8
     1.898              -27.92           12.5          24.01           53.4         -3.673         -2.574         -7.282          53.03         -18.86          20.85          104.4
     1.935              -27.42          11.58          23.73          55.12         -3.764         -5.505          5.287          59.19         -5.354          22.36          101.2
     1.972              -26.99          10.78          23.49          56.61         -3.843         -8.035          16.13           64.5          6.302          23.66          98.49
